<?xml version="1.0" ?>
<!DOCTYPE svg  PUBLIC '-//W3C//DTD SVG 1.1//EN'  'http://www.w3.org/Graphics/SVG/1.1/DTD/svg11.dtd'>
<!-- Uploaded to: SVG Repo, www.svgrepo.com, Generator: SVG Repo Mixer Tools -->
<svg width="800px" height="800px" viewBox="0 0 32 32" enable-background="new 0 0 32 32" version="1.1" xml:space="preserve" xmlns="http://www.w3.org/2000/svg" xmlns:xlink="http://www.w3.org/1999/xlink">
<g id="Layer_2"/>
<g id="Layer_3"/>
<g id="Layer_4"/>
<g id="Layer_5"/>
<g id="Layer_6"/>
<g id="Layer_7"/>
<g id="Layer_8"/>
<g id="Layer_9"/>
<g id="Layer_10"/>
<g id="Layer_11"/>
<g id="Layer_12"/>
<g id="Layer_13"/>
<g id="Layer_14"/>
<g id="Layer_15"/>
<g id="Layer_16"/>
<g id="Layer_17">
<g>
<path d="M16,27c-0.5527,0-1-0.4478-1-1v-6c0-0.5522,0.4473-1,1-1s1,0.4478,1,1v6C17,26.5522,16.5527,27,16,27z" fill="#00ACBA"/>
</g>
<g>
<path d="M24,27c-0.5527,0-1-0.4478-1-1v-2H9v2c0,0.5522-0.4473,1-1,1s-1-0.4478-1-1v-3c0-0.5522,0.4473-1,1-1h16    c0.5527,0,1,0.4478,1,1v3C25,26.5522,24.5527,27,24,27z" fill="#00ACBA"/>
</g>
<g>
<path d="M24,21H7c-3.3086,0-6-2.6914-6-6s2.6914-6,6-6c0.0186,0,0.0371,0,0.0547,0C7.5537,4.5063,11.375,1,16,1    c3.8584,0,7.2471,2.438,8.4951,6.0171C28.125,7.272,31,10.3066,31,14C31,17.8599,27.8594,21,24,21z M7,11c-2.2061,0-4,1.7944-4,4    s1.7939,4,4,4h17c2.7568,0,5-2.2432,5-5s-2.2432-5-5-5c-0.0469,0-0.0879-0.0024-0.1289,0.0024    c-0.498,0.062-0.9658-0.2588-1.0898-0.7461C21.9941,5.1616,19.2051,3,16,3c-3.8594,0-7,3.1401-7,7v0.1001    c0,0.3027-0.1377,0.5894-0.373,0.7793c-0.2363,0.189-0.5459,0.2607-0.8418,0.1973C7.5537,11.0259,7.2891,11,7,11z" fill="#0181B0"/>
</g>
<g>
<path d="M16,31c-1.6543,0-3-1.3457-3-3s1.3457-3,3-3s3,1.3457,3,3S17.6543,31,16,31z M16,27    c-0.5518,0-1,0.4487-1,1s0.4482,1,1,1s1-0.4487,1-1S16.5518,27,16,27z" fill="#F5D803"/>
</g>
<g>
<path d="M24,31c-1.6543,0-3-1.3457-3-3s1.3457-3,3-3s3,1.3457,3,3S25.6543,31,24,31z M24,27    c-0.5518,0-1,0.4487-1,1s0.4482,1,1,1s1-0.4487,1-1S24.5518,27,24,27z" fill="#F5D803"/>
</g>
<g>
<path d="M8,31c-1.6543,0-3-1.3457-3-3s1.3457-3,3-3s3,1.3457,3,3S9.6543,31,8,31z M8,27c-0.5518,0-1,0.4487-1,1    s0.4482,1,1,1s1-0.4487,1-1S8.5518,27,8,27z" fill="#F5D803"/>
</g>
</g>
<g id="Layer_18"/>
<g id="Layer_19"/>
<g id="Layer_20"/>
<g id="Layer_21"/>
<g id="Layer_22"/>
<g id="Layer_23"/>
<g id="Layer_24"/>
<g id="Layer_25"/>
<g id="Layer_26"/>
</svg>